<svg xmlns="http://www.w3.org/2000/svg" width="600" height="744.751" viewBox="0 0 600 744.751"><path d="M18.1 612.956H1.397c-.909 0-1.397.488-1.397 1.397v49.06c0 .91.488 1.398 1.397 1.398H18.38c14.54-.488 25.93-11.951 25.93-25.928 0-14.606-13-25.927-26.209-25.927zm-.909 42.421h-6.918V622.39h6.918c9.576 0 16.843 7.34 16.843 16.494s-7.267 16.494-16.843 16.494zm34.85-40.954v48.99c0 .91.42 1.398 1.398 1.398h7.548c.91 0 1.328-.488 1.328-1.397v-48.991c0-.91-.419-1.467-1.328-1.467H53.44c-.91 0-1.397.558-1.397 1.467zm62.75 44.448v-15.866c0-1.116-.7-1.397-1.327-1.397h-6.22c-.98 0-1.398.49-1.398 1.397V653.7c-2.236 1.678-5.312 2.376-7.967 2.376-9.506.14-16.982-7.828-16.982-17.331 0-9.436 7.267-16.773 16.982-16.773 3.843 0 7.058 1.397 9.783 3.424.839.558 1.539.28 1.957-.209l4.124-5.942c.419-.558.419-1.258-.349-1.816-4.403-3.354-9.366-5.242-15.654-5.242-14.818 0-26.698 11.812-26.698 26.558 0 14.815 12.02 26.767 26.837 26.767 6.289 0 12.02-2.237 16.213-5.103.49-.418.7-.909.7-1.537zm10.948-45.915c-.909 0-1.397.558-1.397 1.467v48.99c0 .91.418 1.398 1.397 1.398h7.548c.91 0 1.328-.488 1.328-1.397v-48.991c0-.91-.419-1.467-1.328-1.467h-7.548zm54.014 0h-36.69c-.908 0-1.329.418-1.329 1.327v6.64c0 .908.42 1.397 1.33 1.397h13.067v41.094c0 .909.42 1.397 1.328 1.397h7.548c.909 0 1.327-.488 1.327-1.397V622.32h13.419c.909 0 1.399-.489 1.399-1.398v-6.639c0-.909-.49-1.327-1.4-1.327zm14.587 50.597l3.285-8.387h21.455l3.354 8.387c.351.91.91 1.258 1.748 1.258h7.619c.909 0 1.397-.558.978-1.467l-19.709-49.061c-.348-.909-.978-1.327-1.748-1.327h-5.87c-.7 0-1.327.418-1.746 1.327l-19.709 49.061c-.418.979 0 1.467.91 1.467h7.687c.767 0 1.397-.349 1.746-1.258zm14.048-37.18l7.337 19.778H200.91l7.478-19.777zm62.454 36.901v-6.36c0-.979-.7-1.607-1.539-1.607h-20.406v-40.884c-.07-1.049-.628-1.537-1.537-1.537h-7.13c-.976 0-1.606.697-1.606 1.537v48.851c0 1.049.56 1.537 1.537 1.537h29.142c1.049-.07 1.54-.63 1.54-1.537zm49.801-29.982c-5.94-1.678-10.133-3.075-10.133-6.639 0-4.752 4.473-5.591 8.036-5.591 4.124 0 7.758 2.936 9.994 4.822.91.7 1.749 1.257 2.655.42l3.845-4.124c.91-.979.91-1.818.07-2.727-4.124-4.191-10.133-7.476-16.215-7.476-11.252 0-18.868 5.87-18.868 14.467 0 7.967 6.01 12.44 17.331 15.794 3.704.979 9.785 2.515 9.785 6.988 0 3.494-3.285 6.78-8.806 6.78-5.312 0-9.224-3.146-12.09-6.01-.84-.7-1.607-1.119-2.446-.351l-4.682 4.614c-.98.977-.421 1.816.348 2.655 4.682 5.103 11.882 8.597 19.08 8.597 10.133 0 19.43-6.29 19.43-16.006 0-9.713-7.9-13.418-17.334-16.213zm64.135 27.395c.84-.628 1.048-1.188.35-2.027l-3.493-5.94c-.63-.77-1.4-.628-2.237 0-2.447 1.888-6.011 3.285-9.784 3.285-9.436 0-16.494-7.758-16.494-17.191 0-9.506 7.058-16.913 16.494-16.913 3.773 0 6.709 1.188 9.994 3.213.837.49 1.536.49 1.955-.07l3.705-6.288c.21-.351.28-1.118-.42-1.748-4.052-2.934-8.946-4.822-15.234-4.822-14.816 0-26.837 11.812-26.837 26.628s12.02 26.767 26.837 26.767c6.288 0 11.182-1.888 15.164-4.894zm18.498 4.124c1.118 0 1.536-.488 1.536-1.397v-20.967h23.273v20.967c0 .909.419 1.397 1.328 1.397h7.339c1.048 0 1.467-.488 1.467-1.397v-49.061c0-1.118-.7-1.397-1.258-1.397h-7.548c-.91 0-1.328.627-1.328 1.467v18.17h-23.273v-18.24c0-1.118-.767-1.397-1.327-1.397h-7.548c-.91 0-1.328.627-1.328 1.467v48.99c0 .91.419 1.398 1.328 1.398h7.339zm69.302-52.625c-14.745 0-26.555 11.882-26.555 26.697 0 14.746 11.81 26.628 26.555 26.628 14.748 0 26.767-11.882 26.767-26.628 0-14.815-12.019-26.697-26.767-26.697zm0 43.54c-9.364 0-16.352-7.479-16.352-16.843 0-9.436 6.988-16.912 16.352-16.912 9.436 0 16.494 7.476 16.494 16.912 0 9.364-7.058 16.843-16.494 16.843zm59.588-43.54c-14.746 0-26.555 11.882-26.555 26.697 0 14.746 11.81 26.628 26.555 26.628 14.748 0 26.767-11.882 26.767-26.628 0-14.815-12.019-26.697-26.767-26.697zm0 43.54c-9.364 0-16.352-7.479-16.352-16.843 0-9.436 6.988-16.912 16.352-16.912 9.436 0 16.494 7.476 16.494 16.912 0 9.364-7.058 16.843-16.494 16.843zm66.297-.419h-20.408v-40.884c-.07-1.049-.628-1.537-1.537-1.537h-7.128c-.979 0-1.608.697-1.608 1.537v48.851c0 1.049.56 1.537 1.536 1.537h29.145c1.047-.07 1.537-.63 1.537-1.537v-6.36c0-.979-.7-1.607-1.537-1.607zM18.1 692.126H1.397c-.909 0-1.397.488-1.397 1.397v49.06c0 .91.488 1.398 1.397 1.398H18.38c14.54-.488 25.93-11.951 25.93-25.928 0-14.606-13-25.927-26.209-25.927zm-.909 42.421h-6.918V701.56h6.918c9.576 0 16.843 7.34 16.843 16.494 0 9.155-7.267 16.494-16.843 16.494zm70.982-.07H62.245v-12.79h19.288c.979 0 1.539-.488 1.539-1.397v-6.64c0-.978-.63-1.397-1.539-1.397H62.245V701.7h25.3c.909 0 1.397-.488 1.397-1.397v-6.78c0-.908-.488-1.396-1.397-1.396H53.369c-.909 0-1.327.488-1.327 1.397v49.06c0 .91.418 1.398 1.327 1.398h34.804c.909 0 1.469-.488 1.469-1.397v-6.71c0-.908-.56-1.397-1.47-1.397zm73.141-42.351h-8.106c-.77 0-1.398.418-1.679 1.327l-13.348 36.2-13.347-36.2c-.35-.979-.909-1.327-1.748-1.327h-7.967c-.839 0-1.327.488-.909 1.467l19.289 49.13c.35.91.978 1.328 1.818 1.328h5.87c.769 0 1.397-.419 1.748-1.328l19.288-49.06c.419-.98-.07-1.537-.909-1.537zm16.54 0h-7.548c-.909 0-1.397.558-1.397 1.467v48.99c0 .91.418 1.398 1.397 1.398h7.549c.908 0 1.327-.488 1.327-1.397v-48.991c0-.91-.419-1.467-1.327-1.467zm55.972 0h-7.06c-.558 0-1.258.209-1.537 1.048v33.055l-22.992-33.055c-.35-.7-1.33-1.048-2.027-1.048h-8.178c-1.049 0-1.537.697-1.537 1.536v48.782c0 1.049.488 1.537 1.537 1.537h7.06c1.118 0 1.606-.488 1.536-1.537V707.92l24.252 34.943c.558.63.909 1.118 2.027 1.118h6.919c1.118 0 1.676-.488 1.676-1.537v-48.782c0-.909-.979-1.536-1.676-1.536zm48.338 39.764c-.63-.77-1.4-.628-2.237 0-2.447 1.888-6.011 3.285-9.784 3.285-9.436 0-16.494-7.758-16.494-17.191 0-9.506 7.058-16.913 16.494-16.913 3.773 0 6.709 1.188 9.994 3.213.837.49 1.536.49 1.955-.07l3.705-6.288c.21-.351.28-1.118-.42-1.748-4.052-2.934-8.946-4.822-15.234-4.822-14.816 0-26.837 11.812-26.837 26.628 0 14.815 12.021 26.767 26.837 26.767 6.288 0 11.182-1.888 15.164-4.894.84-.628 1.048-1.188.35-2.027l-3.493-5.94zm21.92-39.764h-7.549c-.906 0-1.397.558-1.397 1.467v48.99c0 .91.419 1.398 1.397 1.398h7.549c.909 0 1.327-.488 1.327-1.397v-48.991c0-.91-.418-1.467-1.327-1.467zm72.199 3.479h-16.169c-.979 0-1.5.522-1.5 1.564v45.377c0 .979.456 1.435 1.435 1.435h2.737c.979 0 1.435-.456 1.435-1.435v-16.82h12.258c8.409 0 14.864-6.977 14.864-14.995 0-8.216-6.519-15.126-15.06-15.126zm0 24.579H364.22v-19.037h12.062c5.28 0 9.452 4.498 9.452 9.519 0 5.085-4.301 9.518-9.452 9.518zm43.812-23.406c-.194-.457-.52-1.173-1.63-1.173h-1.89c-1.173 0-1.435.716-1.63 1.173 0 .066-.065.066-18.907 45.313 0 0-.131.391-.131.846 0 .719.457 1.044 1.37 1.044h2.803c.913 0 1.435-.391 1.826-1.304l3.65-9.259h23.732l3.782 9.324c.262.717.913 1.24 1.76 1.24h2.803c.848 0 1.436-.326 1.436-1.045 0-.26-.197-.782-.197-.782l-18.777-45.377zm-12.19 31.1l9.584-23.862 9.518 23.862h-19.102zm73.997-16.887c0-8.476-6.78-15.386-15.32-15.386h-18.843c-.913 0-1.435.522-1.435 1.564v45.377c0 .979.522 1.435 1.435 1.435h2.738c.978 0 1.435-.456 1.435-1.435v-16.3h11.41c.848 0 3.585 0 4.042-.063l7.888 16.56c.391.782.848 1.238 1.696 1.238h3.585c.782 0 1.173-.325 1.173-.848 0-.13-.064-.325-.13-.587l-8.606-17.667c5.282-2.412 8.932-7.76 8.932-13.888zm-15.255 9.715h-14.735v-19.559h14.67c5.476 0 9.713 4.63 9.713 9.779 0 5.282-4.173 9.78-9.648 9.78zm27.577-25.101h-2.738c-.913 0-1.435.522-1.435 1.433v45.508c0 .979.457 1.435 1.435 1.435h2.738c.913 0 1.435-.456 1.435-1.435v-45.508c0-.845-.588-1.433-1.435-1.433zm28.686 20.34c-5.606-1.498-11.605-3.324-11.605-7.757 0-3.781 3.13-7.823 10.497-7.823 5.477 0 9.715 3.389 11.802 5.28.39.391.782.651 1.173.651.26 0 .585-.194.847-.456l1.956-1.89c.325-.325.522-.65.522-1.044 0-.52-.717-1.239-1.239-1.824-3.716-3.587-9.584-6.194-14.8-6.194-10.17 0-16.755 5.54-16.755 13.495 0 6.586 5.346 10.106 16.038 12.845 6.78 1.759 13.17 3.325 13.17 8.671 0 6.325-7.042 9.258-12.454 9.258-3.128 0-9.193-2.086-13.038-6.064-.196-.195-.847-.979-1.435-.979-.26 0-.716.131-.978.328l-2.087 1.759c-.39.327-.585.653-.585 1.044 0 .325.194.716.522 1.173 4.172 5.411 10.691 8.214 17.407 8.214 10.17 0 18.255-5.802 18.255-15.124 0-9.127-9.453-11.41-17.213-13.562zM55.648 530.963V335.928c0-4.191-2.237-6.147-6.15-6.147H7.587c-3.91 0-5.867 1.956-5.867 6.147v195.034c0 4.191 1.957 6.146 5.867 6.146H49.5c3.912 0 6.149-1.955 6.149-6.146zm50.851 6.146h41.912c3.913 0 6.15-1.955 6.15-6.146V335.928c0-4.191-2.237-6.147-6.15-6.147H106.5c-3.91 0-5.868 1.956-5.868 6.147v195.034c0 4.191 1.958 6.146 5.868 6.146zm228.562-6.425l32.692-109.254 11.457 109.533c.28 4.191 1.955 6.146 6.147 6.146h39.678c3.91 0 6.426-1.955 6.147-6.146l-20.956-195.034c-.28-4.191-1.958-6.147-6.147-6.147H355.18c-3.913 0-4.75 1.956-6.147 6.147l-38.002 125.458-38-125.458c-1.397-4.191-2.236-6.147-6.147-6.147h-48.898c-4.192 0-5.868 1.956-6.147 6.147l-20.956 195.034c-.281 4.191 2.234 6.146 6.147 6.146h39.676c4.191 0 5.868-1.955 6.147-6.146l11.735-112.327 32.413 112.048c1.118 5.307 2.516 6.425 6.707 6.425h34.648c4.191 0 5.307-1.118 6.704-6.425z" fill="#201d1e"/><path d="M269.622 5.725c-3.889-3.087-30.757-16.275-49.157 12.304-21.771 38.231 21.078 105.177 21.078 105.177l44.939-87.438c-1.157-20.47-12.972-26.957-16.86-30.043zm-155.418 7.689h-49.59l116.733 226.155c15.976-11.79 23.002-51.49 7.148-82.22L114.204 13.414z" fill="#ea7820"/></svg>